<!DOCTYPE svg PUBLIC "-//W3C//DTD SVG 1.1//EN" "http://www.w3.org/Graphics/SVG/1.1/DTD/svg11.dtd">
<!-- Uploaded to: SVG Repo, www.svgrepo.com, Transformed by: SVG Repo Mixer Tools -->
<svg width="75px" height="75px" viewBox="-2.4 -2.4 28.80 28.80" xmlns="http://www.w3.org/2000/svg" fill="#ba2c86" stroke="#ba2c86" transform="matrix(1, 0, 0, 1, 0, 0)">
<g id="SVGRepo_bgCarrier" stroke-width="0"/>
<g id="SVGRepo_tracerCarrier" stroke-linecap="round" stroke-linejoin="round" stroke="#CCCCCC" stroke-width="0.288">
<path fill="none" d="m11 14 7-4-7-4z"/>
<path d="M4 8H2v12c0 1.103.897 2 2 2h12v-2H4V8z"/>
<path d="M20 2H8a2 2 0 0 0-2 2v12a2 2 0 0 0 2 2h12a2 2 0 0 0 2-2V4a2 2 0 0 0-2-2zm-9 12V6l7 4-7 4z"/>
</g>
<g id="SVGRepo_iconCarrier">
<path fill="none" d="m11 14 7-4-7-4z"/>
<path d="M4 8H2v12c0 1.103.897 2 2 2h12v-2H4V8z"/>
<path d="M20 2H8a2 2 0 0 0-2 2v12a2 2 0 0 0 2 2h12a2 2 0 0 0 2-2V4a2 2 0 0 0-2-2zm-9 12V6l7 4-7 4z"/>
</g>
</svg>