<svg id="Layer_1" data-name="Layer 1" xmlns="http://www.w3.org/2000/svg" viewBox="0 0 153.6 135.21"><defs><style>.cls-1{fill:#fff5c3;stroke:#fff;stroke-miterlimit:10;stroke-width:2px;}.cls-2{fill:#ed1c24;}</style></defs><path class="cls-1" d="M386.55,188.12c-2.3-1.36-16.4-9.7-27-4-11.69,6.28-9.28,24.34-15,25s-16.54-16.51-16-35c.9-30.69,57.67-50.64,55-53.71-2.11-2.47-49.36,8.59-64,29.71-4.71,6.77-14.87,21.4-14,42a63.68,63.68,0,0,0,32,52c4.25,2.38,28.25,15.87,49,4,2.07-1.19,18.45-10.92,19-29C406.12,200.09,388.62,189.34,386.55,188.12Zm-21,42c-8.5-1.68-14.12-14.08-10-23,2.64-5.74,9.65-10.78,17-9,6.8,1.64,10.67,8.33,11,14C384.13,221.94,374.26,231.84,365.55,230.12Z" transform="translate(-304.5 -118.73)"/><path class="cls-2" d="M438,135.53c-3.57-3.32-23.74-22-46.7-15.37-2.28.66-20.49,6.29-25.26,23.74-5,18.37,9.48,32.91,11.21,34.59,1.92,1.86,13.67,13.27,25.31,10.21,12.84-3.37,14.72-21.49,20.44-20.79s12.21,19.93,7.35,37.78c-8.06,29.62-43.42,40.89-41.58,44.49,1.48,2.9,25.5-2,44.71-19.05,6.16-5.49,19.47-17.33,23.45-37.55A63.63,63.63,0,0,0,438,135.53Zm-26.16,31.75c-3.92,4.95-11.91,8.21-18.64,4.77-6.22-3.19-8.42-10.61-7.41-16.19,1.74-9.69,13.65-17,21.71-13.28C415.41,146.2,418,159.57,411.88,167.28Z" transform="translate(-304.5 -118.73)"/></svg>